<?xml version="1.0" standalone="no"?>
<!DOCTYPE svg PUBLIC "-//W3C//DTD SVG 20010904//EN"
 "http://www.w3.org/TR/2001/REC-SVG-20010904/DTD/svg10.dtd">
<svg version="1.0" xmlns="http://www.w3.org/2000/svg"
 width="350.000000pt" height="360.000000pt" viewBox="0 0 350.000000 360.000000"
 preserveAspectRatio="xMidYMid meet">
<metadata>
Created by potrace 1.16, written by Peter Selinger 2001-2019
</metadata>
<g transform="translate(0.000000,360.000000) scale(0.100000,-0.100000)"
fill="#000000" stroke="none">
<path d="M1656 3584 c-28 -28 -17 -57 55 -149 l70 -90 -120 -7 c-411 -23 -796
-210 -1049 -509 l-67 -79 -232 0 c-159 0 -240 -4 -258 -12 -53 -24 -55 -40
-55 -389 l0 -321 34 -34 c34 -34 35 -34 125 -34 l91 0 0 -127 c0 -144 17 -266
55 -398 30 -103 50 -131 90 -121 42 11 44 39 14 142 -36 122 -59 276 -59 403
l0 101 180 0 c200 0 228 7 249 58 8 20 11 121 9 356 l-3 328 -30 24 c-16 13
-38 24 -47 24 -10 0 -18 4 -18 9 0 18 182 180 263 234 216 145 444 222 715
241 45 4 82 3 82 -2 0 -5 -38 -39 -85 -76 -62 -49 -85 -74 -85 -90 0 -32 33
-60 62 -52 13 3 86 57 163 119 111 89 141 118 143 140 3 22 -17 53 -102 162
-59 73 -113 141 -122 149 -20 20 -48 20 -68 0z m-966 -1224 c0 -225 -3 -290
-12 -290 -7 0 -137 -1 -288 -1 -151 -1 -276 2 -277 5 -2 3 -3 134 -3 291 l0
285 290 0 290 0 0 -290z"/>
<path d="M2014 3275 c-25 -38 0 -69 68 -85 145 -34 343 -129 477 -231 82 -61
264 -245 293 -295 l16 -29 -164 -285 c-173 -301 -184 -328 -148 -379 32 -46
66 -51 319 -51 l235 0 0 -104 c0 -231 -79 -497 -208 -700 -36 -56 -35 -58 -57
79 -19 117 -37 145 -82 129 -39 -13 -39 -45 -4 -244 23 -131 33 -167 50 -181
19 -15 31 -14 207 16 144 25 191 37 201 51 18 25 16 48 -7 69 -18 17 -24 17
-130 -2 -60 -11 -110 -17 -110 -15 0 2 22 43 50 91 124 216 200 494 200 737
l0 74 83 0 c110 0 153 13 177 53 11 18 20 43 20 57 0 14 -63 135 -144 277
-277 483 -268 470 -327 479 -25 4 -43 0 -69 -18 l-34 -23 -57 65 c-185 215
-410 367 -672 455 -127 42 -160 44 -183 10z m1195 -924 c100 -173 180 -316
178 -318 -2 -2 -170 -2 -373 -1 l-370 3 186 322 c102 177 188 319 192 315 3
-4 88 -148 187 -321z"/>
<path d="M400 1276 c-6 -8 -36 -95 -66 -193 -50 -164 -52 -179 -39 -200 17
-26 56 -30 78 -9 7 8 27 59 43 115 16 56 31 101 34 101 3 0 30 -37 59 -82 33
-50 103 -132 175 -204 164 -164 316 -264 516 -339 41 -16 77 -30 79 -32 2 -2
8 -29 12 -60 22 -163 159 -315 324 -357 258 -68 505 101 550 376 5 35 9 38 78
64 164 61 337 164 475 282 60 51 73 83 47 112 -29 32 -51 24 -128 -42 -97 -84
-231 -169 -342 -217 -130 -58 -131 -57 -159 12 -71 172 -225 277 -405 277
-207 0 -364 -116 -434 -322 -5 -15 -10 -15 -57 3 -181 69 -353 184 -497 332
-91 94 -203 241 -192 251 3 3 47 -8 99 -24 110 -35 131 -36 153 -12 45 49 17
69 -185 131 -181 55 -199 58 -218 37z m1475 -535 c112 -55 175 -152 183 -281
5 -97 -22 -173 -87 -243 -68 -74 -145 -107 -246 -107 -67 0 -90 5 -140 29
-114 54 -185 159 -193 286 -16 257 249 431 483 316z"/>
</g>
</svg>
