<?xml version="1.0" standalone="no"?>
<!DOCTYPE svg PUBLIC "-//W3C//DTD SVG 20010904//EN"
 "http://www.w3.org/TR/2001/REC-SVG-20010904/DTD/svg10.dtd">
<svg version="1.0" xmlns="http://www.w3.org/2000/svg"
 width="200.000000pt" height="200.000000pt" viewBox="0 0 200.000000 200.000000"
 preserveAspectRatio="xMidYMid meet">
<metadata>
Created by potrace 1.16, written by Peter Selinger 2001-2019
</metadata>
<g transform="translate(0.000000,200.000000) scale(0.100000,-0.100000)"
fill="#000000" stroke="none">
<path d="M110 1565 c-13 -31 -21 -57 -19 -59 23 -19 157 -90 204 -108 l60 -23
-110 -6 c-60 -4 -125 -7 -142 -8 -29 -1 -33 -4 -33 -30 0 -31 3 -33 133 -56
55 -11 53 -20 -7 -34 -29 -6 -69 -16 -89 -22 l-37 -10 0 -63 0 -63 66 -18 66
-18 -47 -47 -47 -48 56 -18 57 -18 -53 -53 c-32 -33 -49 -56 -43 -62 11 -9
962 -421 973 -421 4 0 16 21 27 48 36 87 156 253 259 358 119 120 173 160 386
290 l160 97 0 143 c0 79 -2 144 -4 144 -2 0 -188 22 -413 49 -382 46 -413 49
-457 36 -26 -8 -81 -21 -122 -30 l-75 -15 -348 60 c-192 33 -356 60 -364 60
-8 0 -24 -23 -37 -55z m977 -155 c65 -10 72 -14 63 -29 -8 -17 -43 -12 -497
71 -268 50 -490 91 -492 93 -21 21 71 10 431 -51 233 -39 456 -77 495 -84z
m373 54 c173 -20 322 -38 330 -40 21 -7 -215 -131 -276 -145 -96 -22 -192 25
-269 134 -18 25 -31 30 -125 46 -58 10 -98 21 -90 24 30 12 85 23 100 21 8 -2
157 -20 330 -40z m-756 -73 l429 -79 46 -47 c31 -32 40 -45 26 -42 -11 3 -180
42 -375 87 -320 73 -504 124 -549 150 -9 5 -14 9 -11 10 3 0 198 -36 434 -79z
m1176 -8 c0 -13 -277 -156 -339 -176 -98 -32 -196 -11 -289 62 -44 35 -64 68
-57 92 6 18 9 17 33 -15 38 -51 115 -102 173 -116 87 -21 142 -7 311 80 155
80 168 86 168 73z m-936 -152 c215 -49 400 -91 411 -93 37 -8 -157 -21 -219
-15 -49 5 -833 177 -871 192 -5 2 57 4 139 4 l148 1 392 -89z m934 68 c-3 -9
-210 -133 -721 -433 -48 -28 -49 -28 -45 -5 2 18 77 64 378 235 206 117 379
213 383 213 5 1 7 -4 5 -10z m-1146 -146 c331 -76 334 -77 476 -78 78 0 142
-1 142 -2 0 -5 -261 -143 -271 -143 -11 0 -872 250 -877 255 -4 4 150 43 175
44 13 1 172 -34 355 -76z m1148 60 c0 -5 -70 -51 -155 -103 -86 -52 -186 -117
-223 -145 -139 -104 -307 -295 -388 -442 -21 -38 -39 -70 -40 -72 -2 -2 -29 7
-61 21 -32 14 -228 98 -436 188 l-378 163 32 33 c18 19 37 34 43 34 7 0 672
-240 798 -289 24 -9 28 -6 64 47 52 79 192 221 299 302 79 60 417 269 438 270
4 0 7 -3 7 -7z m-1289 -198 c253 -74 462 -135 464 -135 3 0 5 -10 5 -21 0 -26
56 -41 -492 128 -280 86 -448 143 -448 150 0 7 3 13 6 13 3 0 212 -61 465
-135z m128 -130 l374 -115 61 37 c33 20 66 39 71 42 6 3 -12 -19 -38 -49 -27
-30 -62 -73 -79 -97 -17 -24 -34 -43 -37 -43 -3 0 -200 71 -436 158 l-430 157
29 26 c29 25 32 26 71 13 22 -7 208 -65 414 -129z"/>
</g>
</svg>
