<?xml version="1.0" standalone="no"?>
<!DOCTYPE svg PUBLIC "-//W3C//DTD SVG 20010904//EN"
 "http://www.w3.org/TR/2001/REC-SVG-20010904/DTD/svg10.dtd">
<svg version="1.0" xmlns="http://www.w3.org/2000/svg"
 width="200.000000pt" height="200.000000pt" viewBox="0 0 200.000000 200.000000"
 preserveAspectRatio="xMidYMid meet">
<metadata>
Created by potrace 1.16, written by Peter Selinger 2001-2019
</metadata>
<g transform="translate(0.000000,200.000000) scale(0.100000,-0.100000)"
fill="#000000" stroke="none">
<path d="M1200 1857 c-124 -42 -232 -133 -286 -239 l-24 -48 -30 15 c-16 8
-53 15 -82 15 -95 0 -158 -61 -158 -152 0 -44 -2 -48 -25 -48 -14 0 -38 -12
-54 -27 -44 -42 -197 -272 -214 -323 -8 -25 -18 -92 -21 -150 -5 -81 -23 -170
-77 -391 -68 -275 -72 -286 -100 -303 -25 -15 -30 -23 -27 -49 l3 -32 895 0
895 0 0 515 0 515 -40 -1 -40 0 22 65 c30 88 31 222 3 313 -48 156 -172 280
-329 328 -90 28 -224 27 -311 -3z m342 -110 c91 -44 146 -102 192 -197 29 -60
31 -73 31 -170 0 -97 -2 -110 -32 -172 -41 -88 -113 -160 -201 -201 -62 -30
-75 -32 -172 -32 -97 0 -110 2 -170 31 -36 17 -85 49 -110 70 l-44 39 118 5
118 5 34 37 c31 34 34 43 34 99 0 58 -2 64 -39 100 l-39 39 -157 0 -158 0 7
47 c13 96 88 218 166 269 21 14 65 37 97 50 50 21 71 24 154 22 87 -3 102 -6
171 -41z m-712 -257 c11 -11 20 -33 20 -50 0 -17 -9 -39 -20 -50 -44 -44 -120
-11 -120 52 0 17 7 40 17 50 22 24 77 24 103 -2z m-138 -190 c23 -14 51 -20
88 -20 37 0 65 6 88 20 29 18 50 20 180 20 168 0 195 -8 200 -56 5 -55 -8 -58
-247 -64 l-216 -5 -43 -105 c-26 -63 -42 -117 -40 -135 3 -28 6 -30 58 -38 61
-8 92 -25 117 -63 21 -33 21 -68 -1 -164 l-17 -76 -60 -33 c-32 -18 -59 -29
-59 -24 0 4 7 35 15 68 21 86 19 125 -7 152 -19 21 -30 23 -115 23 -52 0 -103
-4 -113 -10 -23 -12 -29 -34 -76 -240 -20 -91 -40 -173 -45 -182 -8 -15 -119
-82 -125 -75 -1 1 24 108 55 237 46 184 60 260 65 349 4 63 13 129 21 147 17
42 182 281 198 287 24 10 47 7 79 -13z m257 -212 c64 -104 242 -208 354 -208
26 0 -3 -19 -147 -100 -99 -55 -181 -98 -183 -96 -3 2 0 29 6 60 20 109 -39
220 -131 248 -21 6 -38 12 -38 14 0 1 10 27 21 58 21 54 23 56 60 56 31 0 41
-5 58 -32z m871 -468 l0 -420 -752 0 c-413 0 -748 3 -745 6 9 10 1481 832
1490 833 4 1 7 -188 7 -419z m-1140 93 c-1 -16 -48 -224 -51 -227 -16 -12
-119 -66 -119 -62 0 7 60 269 65 284 5 13 105 18 105 5z"/>
</g>
</svg>
