<svg version="1.1" id="Layer_1" xmlns="http://www.w3.org/2000/svg" xmlns:xlink="http://www.w3.org/1999/xlink" x="0px" y="0px"
	 width="100%" viewBox="0 0 688 688" enable-background="new 0 0 688 688" xml:space="preserve">
<path fill="#000000" opacity="1.000000" stroke="none" 
	d="
M589.375000,689.000000 
	C590.184631,681.158569 595.834229,676.164429 600.759094,670.641052 
	C598.913025,677.069336 594.069763,681.974487 592.039673,688.637512 
	C591.250000,689.000000 590.500000,689.000000 589.375000,689.000000 
z"/>
<path fill="#000000" opacity="1.000000" stroke="none" 
	d="
M466.415863,192.547363 
	C474.221405,197.073822 481.732239,201.379593 489.172516,205.804062 
	C498.937683,211.611038 502.597443,223.118774 497.073578,233.051056 
	C486.230499,252.547760 474.926331,271.788696 463.743835,291.095428 
	C461.326752,295.268585 457.749359,298.240479 453.094727,299.681763 
	C450.542480,300.471985 449.225372,301.828552 449.260681,304.670563 
	C449.456635,320.447906 444.729431,334.533691 435.972565,347.765076 
	C427.991882,359.823608 421.444885,372.822784 414.036591,385.270813 
	C407.743591,395.844788 399.302399,397.843353 388.742493,391.608704 
	C387.572174,390.917755 386.535248,390.031921 385.112732,390.908844 
	C377.735382,395.457031 370.571228,394.621887 363.574921,389.651703 
	C361.062256,392.681976 359.003601,395.690277 355.640045,397.457306 
	C344.275848,403.427338 331.036011,395.449677 331.630219,382.555847 
	C331.831573,378.186401 331.446014,375.534851 327.188080,373.036804 
	C320.587158,369.164154 318.622040,359.700623 322.112091,352.570129 
	C324.222809,348.257782 326.733154,344.141022 328.937439,340.164612 
	C328.388702,338.730469 327.361328,338.483978 326.510193,337.998138 
	C317.935516,333.103668 314.771881,324.104919 319.443726,315.353943 
	C325.477020,304.052734 332.059631,293.033203 338.716003,282.080963 
	C342.189056,276.366516 348.049255,273.752594 354.299957,272.021606 
	C358.307953,270.911682 362.358673,269.922638 366.296722,268.600800 
	C373.227081,266.274567 375.881073,261.744751 374.894806,254.551102 
	C374.242584,249.793701 374.904510,245.218369 377.307281,241.023514 
	C388.315033,221.805603 399.216095,202.524078 410.462616,183.446472 
	C416.145325,173.806808 427.541229,170.751358 437.450531,176.048157 
	C447.138672,181.226761 456.554443,186.914963 466.415863,192.547363 
M437.457520,285.054749 
	C438.922302,285.844635 440.360962,286.688263 441.856628,287.414612 
	C446.921783,289.874512 450.869141,288.908112 453.750214,283.958923 
	C464.549347,265.407654 475.260284,246.804123 485.857422,228.136841 
	C488.633301,223.246979 487.472565,218.959961 482.725922,216.194458 
	C466.190216,206.560349 449.610718,196.998978 432.947601,187.587448 
	C427.361908,184.432602 423.198914,185.791946 419.961121,191.387955 
	C409.711121,209.103195 399.500549,226.841400 389.328735,244.601654 
	C385.287659,251.657455 386.257599,255.380569 393.183441,259.416260 
	C407.705750,267.878418 422.271088,276.266663 437.457520,285.054749 
M412.698456,284.859558 
	C404.767517,280.276489 396.782654,275.783173 388.933624,271.063873 
	C386.006989,269.304230 384.029816,269.171143 381.890045,272.301392 
	C378.857025,276.738373 374.204773,279.061249 369.137665,280.545593 
	C364.506592,281.902161 359.856018,283.193054 355.235046,284.582825 
	C352.279480,285.471802 349.744232,287.045776 348.156342,289.788635 
	C342.482971,299.588440 336.807190,309.387390 331.222260,319.237640 
	C329.746613,321.840271 328.933014,324.860107 332.010529,326.782562 
	C335.456787,328.935394 337.150635,326.013214 338.605072,323.569214 
	C342.692749,316.700317 346.618744,309.735199 350.709381,302.868042 
	C353.428314,298.303711 356.775360,296.991913 360.031860,299.296173 
	C363.806610,301.967194 363.366455,305.347107 361.252960,308.949646 
	C356.787018,316.562164 352.402557,324.222656 348.010895,331.878540 
	C343.122894,340.399719 338.270569,348.941345 333.388123,357.465698 
	C332.117126,359.684692 332.294006,361.714325 334.453033,363.141968 
	C336.563354,364.537415 338.623505,363.983673 340.263428,362.146515 
	C341.030884,361.286774 341.668640,360.289948 342.249390,359.288116 
	C348.597443,348.337463 354.916016,337.369720 361.257019,326.414948 
	C364.092926,321.515594 366.799866,316.530457 369.873840,311.784027 
	C371.809021,308.795990 374.824524,307.675110 378.098419,309.729370 
	C381.224976,311.691193 381.973663,314.575043 380.205841,317.937042 
	C379.508545,319.263153 378.775330,320.571411 378.026550,321.869354 
	C367.124756,340.766144 356.216583,359.659302 345.312500,378.554749 
	C343.768585,381.230225 341.976044,384.200348 345.737183,386.266418 
	C349.151062,388.141724 351.227814,385.865814 352.876923,382.959839 
	C357.973206,373.979523 363.153717,365.046814 368.328979,356.111542 
	C374.671753,345.160492 380.950165,334.170502 387.441193,323.307770 
	C390.508270,318.175018 396.094086,317.926270 398.552399,322.517456 
	C400.028412,325.274048 398.916229,327.638611 397.539764,330.016998 
	C389.282135,344.285431 381.023804,358.553589 372.819702,372.852814 
	C371.294220,375.511627 369.743317,378.584442 373.217987,380.761292 
	C376.868652,383.048492 378.570679,379.989197 380.213898,377.405823 
	C380.481689,376.984802 380.705536,376.536041 380.956543,376.104095 
	C389.154938,361.993042 397.366180,347.889465 405.542847,333.765839 
	C407.095947,331.083221 409.183014,329.346680 412.414734,329.896790 
	C414.942017,330.326996 416.496704,332.047180 417.117706,334.520538 
	C417.741455,337.004700 416.573334,339.043274 415.391113,341.090302 
	C409.061707,352.049652 402.752563,363.020752 396.449371,373.995239 
	C394.893372,376.704437 393.351776,379.727539 396.843689,381.868439 
	C400.469574,384.091461 402.185364,380.977783 403.878601,378.463013 
	C404.157349,378.049011 404.405182,377.613556 404.655365,377.181122 
	C412.077820,364.351715 418.838470,351.075500 427.114075,338.822418 
	C434.690521,327.604462 436.556763,315.340881 437.594635,302.530762 
	C437.804413,299.941467 436.670227,298.570679 434.575928,297.394958 
	C427.460022,293.400085 420.407776,289.291870 412.698456,284.859558 
z"/>
<path fill="#000000" opacity="1.000000" stroke="none" 
	d="
M393.946991,471.980408 
	C391.799011,468.181854 389.749908,464.745483 387.889984,461.209625 
	C385.849701,457.330780 384.229309,453.169037 385.267853,448.775177 
	C386.143066,445.072449 384.970184,442.928619 382.029205,440.813599 
	C375.025146,435.776581 367.315430,431.586792 361.838867,424.627350 
	C360.528290,422.961884 358.575836,423.177002 356.758728,423.171112 
	C350.261688,423.149994 343.763824,423.109924 337.267487,423.183197 
	C329.890533,423.266388 323.584259,420.735352 318.285004,415.658173 
	C314.917480,412.431793 311.698669,409.044250 308.242035,405.918213 
	C302.818542,401.013519 296.954742,400.831116 291.295746,405.336975 
	C286.900848,408.836395 281.829590,410.133148 276.383881,410.146271 
	C255.559814,410.196503 234.734558,410.292725 213.911652,410.129089 
	C200.322327,410.022339 191.951523,401.359406 191.893997,387.650757 
	C191.817123,369.325775 191.822540,351.000031 191.897781,332.674988 
	C191.956146,318.457001 200.460312,309.948364 214.661987,309.902710 
	C234.986176,309.837372 255.310776,309.887787 275.635193,309.897980 
	C281.437225,309.900879 286.967712,310.975372 291.452271,314.927734 
	C293.545715,316.772766 295.461212,316.814728 297.812714,315.713806 
	C301.438995,314.015961 304.972107,314.239410 306.755554,318.165588 
	C308.625427,322.282043 306.560822,325.290283 302.560425,326.828369 
	C299.512146,328.000366 298.894867,330.232758 298.900848,333.154327 
	C298.936981,350.812683 298.914581,368.471375 298.830933,386.129547 
	C298.820831,388.262573 299.186371,389.644836 301.634857,389.893921 
	C309.601196,390.704315 316.003632,394.819824 320.465790,401.017090 
	C329.314240,413.306305 341.922150,410.807465 354.070007,410.652100 
	C359.132629,405.796387 363.941864,405.544250 369.466370,410.420197 
	C371.238159,411.984009 374.232819,410.207916 375.545288,407.605499 
	C377.531281,403.667389 380.571075,402.290985 384.586182,404.357178 
	C387.722382,405.971100 388.294830,410.102417 385.984131,414.087433 
	C384.996796,415.790161 383.645569,417.334259 382.236969,418.724762 
	C380.972015,419.973419 379.401886,420.912903 377.326477,422.468445 
	C382.590576,426.195221 387.540894,429.736328 392.536652,433.212158 
	C393.850464,434.126190 395.131134,433.347565 396.274506,432.688904 
	C412.850647,423.139374 429.413300,413.566376 446.581024,403.651398 
	C440.483704,393.785767 443.836884,383.997925 446.611877,374.236938 
	C448.184784,368.704254 448.266174,363.488312 445.023529,358.413208 
	C443.022675,355.281708 443.604248,352.106537 446.791199,350.155792 
	C450.178528,348.082428 453.278595,349.152130 455.369202,352.463165 
	C459.322327,358.723938 461.417114,365.385681 459.424469,372.875458 
	C458.142517,377.694000 456.928772,382.533905 455.827087,387.396545 
	C454.183807,394.649689 456.886871,399.692780 463.699677,402.289154 
	C468.404205,404.082092 471.993622,407.179718 474.501282,411.508850 
	C485.353210,430.243225 496.254608,448.949524 506.987610,467.751923 
	C513.063171,478.395294 510.026428,489.980072 499.442963,496.228485 
	C482.665039,506.134125 465.793915,515.885071 448.861938,525.525452 
	C438.218872,531.585144 426.496552,528.148071 420.147095,517.272461 
	C411.415039,502.315948 402.796417,487.293152 393.946991,471.980408 
M238.499969,397.757721 
	C251.324631,397.752472 264.149567,397.795349 276.973846,397.720703 
	C282.942810,397.685974 286.470490,394.833130 286.523987,389.195892 
	C286.707336,369.878571 286.725616,350.555908 286.453094,331.240234 
	C286.365387,325.025940 283.038483,322.311371 276.775696,322.292694 
	C255.956604,322.230530 235.137115,322.230988 214.318024,322.287384 
	C207.296478,322.306427 204.321030,325.332428 204.303726,332.395966 
	C204.258392,350.883331 204.262955,369.371002 204.318283,387.858337 
	C204.338730,394.692535 207.237183,397.641388 214.016174,397.728851 
	C221.842926,397.829895 229.671921,397.755524 238.499969,397.757721 
M471.301727,430.163452 
	C468.966187,426.126953 466.714722,422.038788 464.273743,418.067108 
	C461.254150,413.154022 456.972229,411.857391 451.917236,414.730988 
	C435.121918,424.278412 418.386566,433.933716 401.724579,443.711792 
	C396.940552,446.519348 395.931610,450.920410 398.698059,455.741577 
	C409.308502,474.232758 419.970673,492.694763 430.719635,511.105713 
	C433.788391,516.361938 438.214386,517.490784 443.432861,514.504456 
	C459.480530,505.320923 475.511749,496.107513 491.479797,486.786591 
	C498.491974,482.693329 499.340393,479.085999 495.284760,471.979858 
	C487.441101,458.236420 479.546356,444.522125 471.301727,430.163452 
z"/>
<path fill="#000000" opacity="1.000000" stroke="none" 
	d="
M617.425781,676.361816 
	C623.074219,672.988098 619.763000,667.382935 621.291138,663.053833 
	C624.466858,666.181641 625.273010,672.828430 622.675903,676.459473 
	C620.495972,679.507324 617.633667,681.142700 613.804321,678.847046 
	C613.961365,676.520447 615.943237,677.128601 617.425781,676.361816 
z"/>
<path fill="#000000" opacity="1.000000" stroke="none" 
	d="
M678.497925,662.815430 
	C679.040466,661.390076 679.266113,659.960449 680.874817,660.450073 
	C682.020752,660.798889 682.106201,661.934692 681.880859,662.955994 
	C680.878113,667.498718 679.951172,672.063416 678.760742,676.557617 
	C677.984924,679.486572 675.967896,679.906006 672.970520,678.303894 
	C677.420166,674.100952 676.696472,668.257812 678.497925,662.815430 
z"/>
<path fill="#000000" opacity="1.000000" stroke="none" 
	d="
M631.219849,675.000122 
	C632.819519,670.088623 633.305481,665.165710 636.392883,661.136047 
	C637.770996,667.217285 635.374573,672.602783 633.350342,677.987427 
	C632.815308,679.410767 632.165955,679.256897 628.491089,678.541992 
	C628.078125,676.473755 630.607727,676.725403 631.219849,675.000122 
z"/>
<path fill="#000000" opacity="1.000000" stroke="none" 
	d="
M605.728516,674.214600 
	C605.749634,667.940308 605.749634,662.080566 605.749634,656.220825 
	C606.391541,656.213379 607.033447,656.205994 607.675293,656.198547 
	C608.883362,663.082581 607.769348,670.119507 608.027100,677.061096 
	C608.084656,678.611023 606.816772,679.293274 605.145752,678.706299 
	C603.892883,677.166870 605.980835,676.043030 605.728516,674.214600 
z"/>
<path fill="#000000" opacity="1.000000" stroke="none" 
	d="
M569.289917,674.208862 
	C567.794739,676.073425 567.214905,678.288696 564.474854,679.615601 
	C565.133423,673.376343 567.727356,669.139282 572.634583,665.201294 
	C573.223999,669.370361 570.858765,671.455078 569.289917,674.208862 
z"/>
<path fill="#000000" opacity="1.000000" stroke="none" 
	d="
M667.809692,676.536804 
	C666.568604,679.482239 664.860840,679.830322 662.102295,678.204651 
	C666.407166,674.697388 665.427856,669.164978 668.005676,664.257080 
	C670.467834,668.744202 668.761475,672.448303 667.809692,676.536804 
z"/>
<path fill="#000000" opacity="1.000000" stroke="none" 
	d="
M653.313232,671.245361 
	C650.958191,671.483154 649.020203,671.719788 646.840881,671.985962 
	C645.713806,668.921082 647.873108,668.595276 649.843201,668.784546 
	C654.293701,669.211975 656.459900,667.528320 655.559814,661.597351 
	C658.293945,664.461731 658.535339,666.693726 658.092773,669.058167 
	C657.618958,671.589783 655.479675,671.095276 653.313232,671.245361 
z"/>
<path fill="#000000" opacity="1.000000" stroke="none" 
	d="
M640.026062,676.572266 
	C641.100952,673.646362 640.480774,670.980347 640.676514,668.361023 
	C640.862854,665.865723 640.150085,663.215759 641.493835,660.908813 
	C642.019531,660.910095 642.545166,660.911316 643.070862,660.912537 
	C643.070862,666.449707 643.120361,671.987610 643.030029,677.523315 
	C643.011475,678.660034 641.978760,679.169006 640.874512,679.030701 
	C639.569458,678.867188 639.299988,678.056274 640.026062,676.572266 
z"/>
<path fill="#000000" opacity="1.000000" stroke="none" 
	d="
M648.306274,677.471619 
	C652.008911,677.228760 654.389587,674.935791 656.997620,672.416809 
	C658.759949,676.398315 656.604370,677.876953 654.339478,679.094482 
	C651.520020,680.610168 650.083008,680.193481 648.306274,677.471619 
z"/>
<path fill="#000000" opacity="1.000000" stroke="none" 
	d="
M613.629150,670.862793 
	C613.135681,671.457947 612.543091,672.030029 612.416687,671.940979 
	C609.888855,670.158630 610.908203,667.511353 611.055359,665.209473 
	C611.182495,663.221680 612.038574,661.370117 615.098511,661.548096 
	C614.632568,664.645813 614.189941,667.588867 613.629150,670.862793 
z"/>
<path fill="#000000" opacity="1.000000" stroke="none" 
	d="
M597.170898,667.943359 
	C596.429993,669.531311 596.587830,671.286804 594.840820,671.850159 
	C593.435303,667.761780 594.088745,665.434570 597.901917,661.527954 
	C599.151367,663.836365 597.517395,665.668030 597.170898,667.943359 
z"/>
<path fill="#000000" opacity="1.000000" stroke="none" 
	d="
M663.045471,662.612427 
	C663.021118,665.529175 664.325073,668.086670 663.287170,671.556519 
	C660.317627,667.872131 660.602417,664.389893 660.507385,661.064758 
	C662.261597,660.223877 662.457092,661.474609 663.045471,662.612427 
z"/>
<path fill="#000000" opacity="1.000000" stroke="none" 
	d="
M674.067139,670.022949 
	C673.145020,671.184631 672.294739,670.905273 672.192261,669.961731 
	C671.868896,666.982666 670.337646,664.092712 671.348938,660.376221 
	C673.895142,663.403503 674.283447,666.468201 674.067139,670.022949 
z"/>
<path fill="#000000" opacity="1.000000" stroke="none" 
	d="
M629.057739,665.190063 
	C629.140137,667.078552 630.440247,668.705505 628.555420,670.506104 
	C626.398132,667.648804 626.423767,664.486084 626.059509,661.064880 
	C628.752014,661.443970 628.152100,663.647339 629.057739,665.190063 
z"/>
<path fill="#000000" opacity="1.000000" stroke="none" 
	d="
M586.880249,669.926758 
	C586.694580,667.300537 587.450073,665.271057 590.430298,662.838074 
	C590.449402,666.671509 590.335938,669.039978 586.880249,669.926758 
z"/>
</svg>