<?xml version="1.0" standalone="no"?>
<!DOCTYPE svg PUBLIC "-//W3C//DTD SVG 20010904//EN"
 "http://www.w3.org/TR/2001/REC-SVG-20010904/DTD/svg10.dtd">
<svg version="1.0" xmlns="http://www.w3.org/2000/svg"
 width="1000.000000pt" height="980.000000pt" viewBox="0 0 1000.000000 980.000000"
 preserveAspectRatio="xMidYMid meet">
<metadata>
Created by potrace 1.16, written by Peter Selinger 2001-2019
</metadata>
<g transform="translate(0.000000,980.000000) scale(0.100000,-0.100000)"
fill="#000000" stroke="none">
<path d="M6380 6949 c-113 -21 -431 -81 -708 -133 -277 -51 -504 -95 -506 -97
-1 -2 -91 -134 -199 -292 l-197 -288 -19 -102 c-27 -140 -54 -338 -47 -345 4
-3 156 22 338 56 196 37 334 59 337 53 11 -18 175 -921 168 -927 -3 -3 -144
-32 -312 -64 -168 -31 -307 -59 -309 -61 -2 -2 28 -78 66 -169 222 -526 479
-1169 613 -1530 50 -136 162 -220 292 -220 29 0 245 36 479 80 468 87 477 90
551 174 32 36 79 144 295 677 142 349 262 654 268 679 5 25 10 69 10 98 0 29
-50 320 -111 645 -291 1561 -277 1488 -308 1552 -39 78 -87 134 -157 180 -131
87 -234 93 -544 34z m519 -989 c52 -15 105 -56 130 -101 33 -58 27 -142 -15
-201 -76 -108 -255 -141 -366 -68 -120 80 -117 245 7 329 70 48 166 64 244 41z"/>
<path d="M3500 5469 c-119 -209 -146 -248 -155 -235 -7 8 -72 119 -146 245
-74 126 -136 228 -138 226 -2 -2 18 -126 45 -274 26 -149 45 -274 41 -277 -3
-4 -126 36 -272 88 -146 53 -265 94 -265 92 0 -2 99 -86 220 -188 121 -102
217 -187 213 -189 -5 -3 -127 -49 -273 -103 l-265 -99 292 -3 291 -2 -139
-246 c-77 -135 -139 -248 -137 -249 2 -2 99 78 217 176 118 99 217 176 221
172 4 -4 29 -128 56 -275 26 -147 51 -264 55 -260 3 4 27 128 53 277 26 148
48 270 49 271 1 1 101 -81 222 -181 121 -101 221 -182 223 -180 1 1 -61 111
-138 244 -77 133 -140 246 -140 250 0 4 71 8 159 10 l158 2 6 -53 c4 -29 7
-96 7 -149 l0 -96 285 -829 c157 -456 297 -859 311 -895 36 -95 78 -129 159
-129 97 0 167 66 167 157 0 37 -57 214 -242 748 -133 385 -270 781 -304 881
l-62 181 -77 89 -77 89 42 5 42 5 -51 18 -51 18 -52 151 c-28 84 -56 162 -61
174 l-8 23 -72 -24 c-40 -14 -76 -25 -81 -25 -5 0 54 54 132 120 78 66 139
120 136 120 -3 0 -123 -43 -267 -95 -144 -52 -265 -95 -269 -95 -4 0 15 127
41 283 26 155 46 283 45 284 -1 1 -67 -111 -146 -248z m-146 -393 c5 0 38 50
74 112 36 62 66 111 68 109 2 -1 -8 -62 -20 -135 -13 -72 -20 -132 -15 -132 4
0 63 20 130 45 67 25 124 44 125 42 1 -1 -38 -36 -87 -77 -138 -115 -140 -99
13 -156 l133 -49 -142 -5 -142 -5 69 -117 c38 -65 67 -118 64 -118 -3 0 -50
37 -105 83 -55 45 -103 81 -107 80 -3 -1 -17 -59 -29 -129 -12 -70 -24 -128
-26 -130 -2 -2 -14 56 -27 128 -13 73 -25 135 -26 137 -2 2 -43 -30 -91 -70
-135 -113 -131 -112 -97 -49 17 30 48 85 68 123 l38 67 -144 0 -143 1 128 49
c71 26 131 50 133 53 3 3 -42 44 -100 92 -59 48 -106 89 -106 91 0 2 57 -17
126 -41 69 -25 129 -45 133 -45 4 0 -3 55 -15 123 -13 67 -23 129 -23 137 -1
8 30 -36 67 -99 37 -62 71 -114 76 -115z"/>
<path d="M4961 5579 c-139 -26 -256 -51 -259 -54 -9 -9 17 -177 42 -277 25
-93 99 -311 115 -337 8 -12 50 -7 262 33 140 26 254 48 255 49 1 1 -24 144
-57 317 -32 173 -59 316 -59 318 0 6 -67 -4 -299 -49z"/>
</g>
</svg>
