<?xml version="1.0" standalone="no"?>
<!DOCTYPE svg PUBLIC "-//W3C//DTD SVG 20010904//EN"
 "http://www.w3.org/TR/2001/REC-SVG-20010904/DTD/svg10.dtd">
<svg version="1.0" xmlns="http://www.w3.org/2000/svg"
 width="260.000000pt" height="260.000000pt" viewBox="0 0 260.000000 260.000000"
 preserveAspectRatio="xMidYMid meet">
<metadata>
Created by potrace 1.16, written by Peter Selinger 2001-2019
</metadata>
<g transform="translate(0.000000,260.000000) scale(0.100000,-0.100000)"
fill="#000000" stroke="none">
<path d="M1890 1711 l0 -288 -39 -7 c-47 -7 -81 -45 -81 -88 0 -41 48 -88 89
-88 l31 0 -2 -232 -3 -233 -27 -3 -28 -3 0 -85 0 -84 206 0 205 0 -3 28 -3 27
-172 3 -173 2 0 25 0 25 173 2 172 3 3 27 3 27 -148 3 -148 3 -3 583 -2 582
30 0 30 0 0 -435 0 -435 30 0 30 0 0 435 0 434 88 3 c87 3 87 3 90 31 l3 27
-175 0 -176 0 0 -289z"/>
<path d="M362 1943 l3 -28 730 0 730 0 3 28 3 27 -736 0 -736 0 3 -27z"/>
<path d="M585 1848 c-16 -6 -73 -14 -125 -17 -95 -6 -95 -6 -98 -33 l-3 -28
94 0 c61 0 107 5 130 15 30 12 101 15 412 15 311 0 382 -3 412 -15 27 -12 80
-15 230 -15 l194 0 -3 28 -3 27 -195 5 c-111 4 -210 11 -230 18 -46 16 -771
15 -815 0z"/>
<path d="M620 1711 c-43 -29 -50 -31 -152 -31 l-108 0 0 -31 0 -31 118 4 c111
3 122 5 158 31 l40 27 303 0 302 0 36 -27 36 -28 239 -3 238 -3 0 30 0 31
-223 0 -222 0 -40 28 -40 27 -320 3 -321 3 -44 -30z"/>
<path d="M702 1585 c-55 -49 -78 -55 -218 -55 l-124 0 0 -25 0 -25 145 0 c157
0 179 5 224 54 l24 26 227 0 226 0 30 -31 c16 -17 39 -35 51 -40 13 -4 139 -9
280 -9 l258 -1 3 25 3 26 -240 0 c-142 0 -251 4 -267 10 -15 6 -45 26 -66 45
l-38 35 -240 0 -240 0 -38 -35z"/>
<path d="M755 1476 c-22 -14 -55 -45 -73 -70 -28 -39 -38 -46 -67 -46 -30 0
-37 -5 -55 -40 -16 -32 -20 -59 -20 -145 l0 -105 55 0 c41 0 57 -4 61 -15 4
-9 18 -22 33 -30 25 -14 24 -14 -31 -15 -58 0 -58 0 -58 -30 0 -20 5 -30 15
-30 27 0 18 -54 -15 -85 -22 -21 -30 -38 -30 -62 0 -32 -1 -33 -45 -33 l-45 0
0 -85 0 -85 555 0 555 0 0 85 0 85 -39 0 c-37 0 -39 2 -46 36 -3 20 -17 47
-31 61 -28 28 -34 83 -8 83 11 0 14 8 12 28 -3 25 -7 27 -55 30 l-53 3 34 30
c27 23 43 29 81 29 l47 0 -4 94 c-2 76 -7 100 -24 123 -31 43 -99 73 -164 73
-54 0 -56 1 -104 56 -69 79 -85 84 -278 84 -154 0 -165 -1 -203 -24z m371 -45
c25 -12 58 -40 85 -75 l44 -56 68 0 c109 0 150 -34 151 -128 l1 -47 -48 -3
c-40 -3 -49 -7 -57 -28 -14 -35 -67 -34 -80 1 l-10 25 -242 0 c-243 0 -243 0
-253 -22 -7 -17 -18 -23 -40 -23 -22 0 -33 6 -40 23 -8 18 -18 22 -57 22 l-48
0 0 74 c0 96 4 106 46 106 28 0 38 7 62 43 39 56 73 86 108 97 16 4 83 9 149
9 97 0 128 -3 161 -18z m131 -391 l34 -30 -256 0 -255 0 32 30 33 29 189 1
188 0 35 -30z m133 -119 c0 -19 -10 -40 -30 -59 -20 -21 -30 -40 -30 -61 l0
-31 -292 2 -293 3 -6 40 c-4 24 -15 45 -28 53 -14 10 -21 25 -21 48 l0 34 350
0 350 0 0 -29z m140 -236 l0 -25 -495 0 -495 0 0 25 0 25 495 0 495 0 0 -25z"/>
<path d="M1537 943 c-4 -3 -7 -17 -7 -30 l0 -23 150 0 150 0 0 30 0 30 -143 0
c-79 0 -147 -3 -150 -7z"/>
</g>
</svg>
