<?xml version="1.0" encoding="UTF-8"?>
<svg width="40px" height="40px" viewBox="0 0 40 40" version="1.1" xmlns="http://www.w3.org/2000/svg" xmlns:xlink="http://www.w3.org/1999/xlink">
    <title>Group 23 Copy</title>
    <defs>
        <path d="M10.0404141,0 C7.11828654,0.00921344795 4.57906862,0.893704451 2.73675361,2.73713112 L2.73675361,2.73713112 C0.8914903,4.58276901 0.00700219748,7.12494357 0,10.0511346 L0,10.0511346 L0,10.1207883 C0.0136358583,16.0358219 3.59396999,23.5046113 10.0511017,29.9613957 L10.0511017,29.9613957 C14.5605169,34.4722998 19.7915269,37.7533929 24.7804083,39.2002727 L24.7804083,39.2002727 C26.6256717,39.7353898 28.3673761,40 29.9712479,40 L29.9712479,40 C32.958975,40 35.46871,39.0797608 37.2738028,37.2750306 L37.2738028,37.2750306 C40.0477786,34.5010457 40.7328884,30.0634807 39.2001442,24.7804896 L39.2001442,24.7804896 C37.7536376,19.7919603 34.4725553,14.5613017 29.9612974,10.0507661 L29.9612974,10.0507661 C23.5041657,3.59287616 16.0357693,0.013267365 10.1203866,0 L10.1203866,0 L10.0404141,0 Z M25.5742364,36.4664584 C21.0379181,35.1511466 16.2392016,32.1258188 12.0633121,27.9488101 L12.0633121,27.9488101 C3.79297981,19.6791877 0.443718198,9.05571372 4.74896404,4.74971669 L4.74896404,4.74971669 C6.02778642,3.47125865 7.86346777,2.86796208 10.0300951,2.86796208 L10.0300951,2.86796208 C15.1582834,2.86796208 22.1357889,6.24966601 27.949087,12.0633517 L27.949087,12.0633517 C32.1264506,16.2399919 35.1502943,21.037987 36.4667074,25.5739517 L36.4667074,25.5739517 C37.6965144,29.8147176 37.2686433,33.2553876 35.2615924,35.2624451 L35.2615924,35.2624451 C34.0045137,36.5180538 32.1872591,37.1556243 29.9646142,37.1556243 L29.9646142,37.1556243 C28.6353023,37.1556243 27.1600499,36.9271308 25.5742364,36.4664584 L25.5742364,36.4664584 Z" id="path-1"></path>
        <linearGradient x1="0%" y1="49.9997809%" x2="100.000251%" y2="49.9997809%" id="linearGradient-3">
            <stop stop-color="#933AFB" offset="0%"></stop>
            <stop stop-color="#FB3A41" offset="100%"></stop>
        </linearGradient>
        <path d="M24.7739969,0.80152707 C19.7892586,2.24966111 14.5611465,5.53212287 10.0517247,10.0417731 L10.0517247,10.0417731 C0.369502962,19.72723 -2.84487518,31.6859548 2.73391648,37.2660292 L2.73391648,37.2660292 C4.58429499,39.1169555 7.13640135,40 10.0753246,40 L10.0753246,40 C15.9937333,40 23.4789532,36.4161818 29.9482718,29.944948 L29.9482718,29.944948 C39.629756,20.25986 42.8445029,8.30224173 37.2671863,2.72179855 L37.2671863,2.72179855 C35.4629013,0.918454856 32.956151,0 29.970028,0 L29.970028,0 C28.364867,0 26.6210567,0.265577308 24.7739969,0.80152707 M4.76313787,35.2354693 C2.76341634,33.2362624 2.33972464,29.8033068 3.56949992,25.5702996 L3.56949992,25.5702996 C4.88482478,21.0399934 7.9078226,16.2466918 12.0820523,12.0715952 L12.0820523,12.0715952 C16.2540696,7.89723634 21.0463213,4.87408131 25.5745493,3.55762935 L25.5745493,3.55762935 C27.1623791,3.0969265 28.6370032,2.86823493 29.965603,2.86823493 L29.965603,2.86823493 C32.1795672,2.86823493 33.9882772,3.50230075 35.2368586,4.75235838 L35.2368586,4.75235838 C37.2362114,6.75156534 37.6599031,10.1848898 36.4304966,14.4167904 L36.4304966,14.4167904 C35.1151717,18.9463589 32.0921739,23.7400293 27.9183129,27.9154948 L27.9183129,27.9154948 C22.1097911,33.7268427 15.1393437,37.1107402 10.0214873,37.1107402 L10.0214873,37.1107402 C7.86467906,37.1107402 6.03642544,36.5095027 4.76313787,35.2354693" id="path-4"></path>
        <linearGradient x1="6.28693549e-05%" y1="50.000248%" x2="100.000044%" y2="50.000248%" id="linearGradient-6">
            <stop stop-color="#933AFB" offset="0%"></stop>
            <stop stop-color="#FB3A41" offset="100%"></stop>
        </linearGradient>
    </defs>
    <g id="Homepage" stroke="none" stroke-width="1" fill="none" fill-rule="evenodd">
        <g id="BeyondWords-Mobile-Light-Copy" transform="translate(-20.000000, -7438.000000)">
            <g id="Group-25" transform="translate(-620.000000, 7388.000000)">
                <g id="Group-12" transform="translate(640.000000, 50.000000)">
                    <g id="Group-26">
                        <mask id="mask-2" fill="white">
                            <use xlink:href="#path-1"></use>
                        </mask>
                        <g id="Clip-25"></g>
                        <path d="M10.0404141,0 C7.11828654,0.00921344795 4.57906862,0.893704451 2.73675361,2.73713112 L2.73675361,2.73713112 C0.8914903,4.58276901 0.00700219748,7.12494357 0,10.0511346 L0,10.0511346 L0,10.1207883 C0.0136358583,16.0358219 3.59396999,23.5046113 10.0511017,29.9613957 L10.0511017,29.9613957 C14.5605169,34.4722998 19.7915269,37.7533929 24.7804083,39.2002727 L24.7804083,39.2002727 C26.6256717,39.7353898 28.3673761,40 29.9712479,40 L29.9712479,40 C32.958975,40 35.46871,39.0797608 37.2738028,37.2750306 L37.2738028,37.2750306 C40.0477786,34.5010457 40.7328884,30.0634807 39.2001442,24.7804896 L39.2001442,24.7804896 C37.7536376,19.7919603 34.4725553,14.5613017 29.9612974,10.0507661 L29.9612974,10.0507661 C23.5041657,3.59287616 16.0357693,0.013267365 10.1203866,0 L10.1203866,0 L10.0404141,0 Z M25.5742364,36.4664584 C21.0379181,35.1511466 16.2392016,32.1258188 12.0633121,27.9488101 L12.0633121,27.9488101 C3.79297981,19.6791877 0.443718198,9.05571372 4.74896404,4.74971669 L4.74896404,4.74971669 C6.02778642,3.47125865 7.86346777,2.86796208 10.0300951,2.86796208 L10.0300951,2.86796208 C15.1582834,2.86796208 22.1357889,6.24966601 27.949087,12.0633517 L27.949087,12.0633517 C32.1264506,16.2399919 35.1502943,21.037987 36.4667074,25.5739517 L36.4667074,25.5739517 C37.6965144,29.8147176 37.2686433,33.2553876 35.2615924,35.2624451 L35.2615924,35.2624451 C34.0045137,36.5180538 32.1872591,37.1556243 29.9646142,37.1556243 L29.9646142,37.1556243 C28.6353023,37.1556243 27.1600499,36.9271308 25.5742364,36.4664584 L25.5742364,36.4664584 Z" id="Fill-24" fill="url(#linearGradient-3)" mask="url(#mask-2)"></path>
                    </g>
                    <g id="Group-29">
                        <mask id="mask-5" fill="white">
                            <use xlink:href="#path-4"></use>
                        </mask>
                        <g id="Clip-28"></g>
                        <path d="M24.7739969,0.80152707 C19.7892586,2.24966111 14.5611465,5.53212287 10.0517247,10.0417731 L10.0517247,10.0417731 C0.369502962,19.72723 -2.84487518,31.6859548 2.73391648,37.2660292 L2.73391648,37.2660292 C4.58429499,39.1169555 7.13640135,40 10.0753246,40 L10.0753246,40 C15.9937333,40 23.4789532,36.4161818 29.9482718,29.944948 L29.9482718,29.944948 C39.629756,20.25986 42.8445029,8.30224173 37.2671863,2.72179855 L37.2671863,2.72179855 C35.4629013,0.918454856 32.956151,0 29.970028,0 L29.970028,0 C28.364867,0 26.6210567,0.265577308 24.7739969,0.80152707 M4.76313787,35.2354693 C2.76341634,33.2362624 2.33972464,29.8033068 3.56949992,25.5702996 L3.56949992,25.5702996 C4.88482478,21.0399934 7.9078226,16.2466918 12.0820523,12.0715952 L12.0820523,12.0715952 C16.2540696,7.89723634 21.0463213,4.87408131 25.5745493,3.55762935 L25.5745493,3.55762935 C27.1623791,3.0969265 28.6370032,2.86823493 29.965603,2.86823493 L29.965603,2.86823493 C32.1795672,2.86823493 33.9882772,3.50230075 35.2368586,4.75235838 L35.2368586,4.75235838 C37.2362114,6.75156534 37.6599031,10.1848898 36.4304966,14.4167904 L36.4304966,14.4167904 C35.1151717,18.9463589 32.0921739,23.7400293 27.9183129,27.9154948 L27.9183129,27.9154948 C22.1097911,33.7268427 15.1393437,37.1107402 10.0214873,37.1107402 L10.0214873,37.1107402 C7.86467906,37.1107402 6.03642544,36.5095027 4.76313787,35.2354693" id="Fill-27" fill="url(#linearGradient-6)" mask="url(#mask-5)"></path>
                    </g>
                </g>
            </g>
        </g>
    </g>
</svg>