
<svg xmlns="http://www.w3.org/2000/svg" class="nav-kommunicate-logo km-logo-rest-pages" id="Layer_1" viewBox="0 0 352.7 316.7" x="0px" xml:space="preserve" y="0px">
<style type="text/css">
					.km-logo-final-logo-0{fill:url(#km-logo-final-logo-gradient-1);}
				</style>
<g>
<linearGradient ggradientUnits="userSpaceOnUse" id="km-logo-final-logo-gradient-1" x1="4.1155" x2="348.5183" y1="157.8602" y2="157.8602">
<stop offset="0" style="stop-color:#5553b7"></stop>
<stop offset="2.677427e-02" style="stop-color:#5553b7"></stop>
<stop offset="0.2049" style="stop-color:#5553b7"></stop>
<stop offset="0.3695" style="stop-color:#5553b7"></stop>
<stop offset="0.5063" style="stop-color:#5553b7"></stop>
<stop offset="0.6539" style="stop-color:#5553b7"></stop>
<stop offset="0.9019" style="stop-color:#5553b7"></stop>
<stop offset="1" style="stop-color:#5553b7"></stop>
</linearGradient>
<path class="km-logo-final-logo-0" d="M348.5,302.2V121.2c0-65.4-53-118.3-118.3-118.3H122.5C57.1,2.8,4.1,55.8,4.1,121.2   c0,65.4,53,118.4,118.4,118.4H239c0,0,9.5,0.6,15.2,2.6c5.5,2,11.5,6.8,11.5,6.8l72,59.3c0,0,6.5,5.6,8.9,4.5   C349,311.5,348.5,302.2,348.5,302.2z M125.8,145.3c0,7.9-6.9,14.3-15.4,14.3S95,153.2,95,145.3V94.5c0-7.9,6.9-14.3,15.4-14.3   s15.4,6.4,15.4,14.3V145.3z M191.7,169.3c0,7.9-6.9,14.3-15.4,14.3c-8.5,0-15.4-6.4-15.4-14.3V70.5c0-7.9,6.9-14.3,15.4-14.3   c8.5,0,15.4,6.4,15.4,14.3V169.3z M257.6,145.3c0,7.9-6.9,14.3-15.4,14.3c-8.5,0-15.4-6.4-15.4-14.3V94.5c0-7.9,6.9-14.3,15.4-14.3   c8.5,0,15.4,6.4,15.4,14.3V145.3z"></path>
</g>
</svg>